<svg xmlns="http://www.w3.org/2000/svg" version="1.1" xmlns:xlink="http://www.w3.org/1999/xlink" xmlns:svgjs="http://svgjs.dev/svgjs" width="100%" height="100%" viewBox="0 0 1000 600"><rect width="1000" height="600" x="0" y="0" fill="#f8fafc"/><g><rect width="333.3333333333333" height="333.3333333333333" y="313.61367367963214" fill="#2cb1bc" transform="matrix(0.42897624942285395,0,0,0.4289762494228539,0,93.97115511617875)" x="291.391357421875"/><path d="M366.684167081621 531.5501022666617L366.684167081621 531.5501022666617Q350.69749012554223 531.5501022666617 339.1820868806167 524.605889463865Q327.66668363569113 517.6866558438121 321.5467838634422 505.99639831967943Q315.4268840911933 494.3061407955468 315.4268840911933 480.29281927623396L315.4268840911933 480.29281927623396Q315.4268840911933 466.07966429497014 321.5467838634422 454.46434431906914Q327.66668363569113 442.874003525912 339.1820868806167 435.9547699058591Q350.69749012554223 429.03553628580624 366.684167081621 429.03553628580624L366.684167081621 429.03553628580624Q378.3744246057537 429.03553628580624 387.74161813470613 432.88233042836265Q397.0838324809147 436.75410375366306 403.55344081157784 443.59839982548425L403.55344081157784 443.59839982548425L399.781584217253 447.37025641980915Q393.86151790695504 441.4252109267673 385.56842923598913 438.02804207360055Q377.3003197477671 434.60589403768995 366.684167081621 434.60589403768995L366.684167081621 434.60589403768995Q352.2961578211501 434.60589403768995 341.9547761651866 440.8007313581705Q331.6133945092231 447.0205478613949 326.21789103654646 457.3619295173584Q320.8223875638699 467.7033111733219 320.8223875638699 480.29281927623396L320.8223875638699 480.29281927623396Q320.8223875638699 492.88232737914603 326.21789103654646 503.22370903510955Q331.6133945092231 513.565090691073 341.9547761651866 519.7599280115536Q352.2961578211501 525.9547653320342 366.684167081621 525.9547653320342L366.684167081621 525.9547653320342Q377.3003197477671 525.9547653320342 385.56842923598913 522.5575964788674Q393.86151790695504 519.1354484429568 399.781584217253 513.190402949915L399.781584217253 513.190402949915L403.55344081157784 516.9622595442397Q397.0838324809147 523.6317013368539 387.74161813470613 527.5784122103859Q378.3744246057537 531.5501022666617 366.684167081621 531.5501022666617ZM366.684167081621 543.4152140700014L366.684167081621 543.4152140700014Q352.2961578211501 543.4152140700014 340.7058170279929 538.4693358867146Q329.1154762348358 533.5234577034278 320.74745001563826 524.8806604740475Q312.37942379644073 516.2628424274113 307.98308763351906 504.8223767307174Q303.5617722878535 493.40689021676735 303.5617722878535 480.29281927623396L303.5617722878535 480.29281927623396Q303.5617722878535 467.15376915295667 307.98308763351906 455.7382826390066Q312.37942379644073 444.3227961250566 320.74745001563826 435.58008216470097Q329.1154762348358 426.86234738708924 340.7058170279929 422.0163859347779Q352.2961578211501 417.1454452997226 366.684167081621 417.1454452997226L366.684167081621 417.1454452997226Q380.8973220628849 417.1454452997226 392.31280857683487 421.91646920380236Q403.75327427352886 426.6874931078822 412.0213837617508 435.13045687531127L412.0213837617508 435.13045687531127L408.049693705475 439.10214693158713Q400.6808347960324 431.3586002809864 390.1645988608618 427.03720166629637Q379.64836292569123 422.7407822343502 366.684167081621 422.7407822343502L366.684167081621 422.7407822343502Q349.07384324719044 422.7407822343502 336.03470985488866 430.459349702207Q322.9955764625869 438.20289635280767 315.9764261115585 451.24202974510945Q308.95727576053014 464.2811631374113 308.95727576053014 480.29281927623396L308.95727576053014 480.29281927623396Q308.95727576053014 496.10464195310567 315.9764261115585 509.24369207638296Q322.9955764625869 522.3577630169164 336.03470985488866 530.1013096675171Q349.07384324719044 537.8448563181178 366.684167081621 537.8448563181178L366.684167081621 537.8448563181178Q379.64836292569123 537.8448563181178 390.1645988608618 533.5234577034278Q400.6808347960324 529.2020590887377 408.049693705475 521.458512438137L408.049693705475 521.458512438137L412.0213837617508 525.4302024944128Q403.75327427352886 533.6983119826348 392.31280857683487 538.5442734349463Q380.8973220628849 543.4152140700014 366.684167081621 543.4152140700014ZM366.684167081621 555.2803258733412L366.684167081621 555.2803258733412Q349.7982395467628 555.2803258733412 336.03470985488866 549.4351971112749Q322.27118016301455 543.5900683492087 312.37942379644073 533.3486034242205Q302.487667429867 523.0821593164887 297.0921639571904 509.5184630865656Q291.69666048451376 495.92978767389855 291.69666048451376 480.29281927623396L291.69666048451376 480.29281927623396Q291.69666048451376 464.6308716958255 297.0921639571904 451.0671754659024Q302.487667429867 437.47850005323534 312.37942379644073 427.2370351282473Q322.27118016301455 416.9705910205155 336.03470985488866 411.12546225844915Q349.7982395467628 405.28033349638287 366.684167081621 405.28033349638287L366.684167081621 405.28033349638287Q383.24536524080895 405.28033349638287 396.90897820170755 410.950607979242Q410.5725911626062 416.6208824621013 420.46434752918 426.6874931078822L420.46434752918 426.6874931078822L416.69249093485513 430.459349702207Q407.5251308678537 421.29198963520554 394.8357060339661 415.9964028935044Q382.1712603828224 410.67583696905945 366.684167081621 410.67583696905945L366.684167081621 410.67583696905945Q350.8723444047493 410.67583696905945 338.1079820226301 416.071340441736Q325.31864045776706 421.46684391441266 316.1512803907656 431.0088917225722Q306.98392032376415 440.5259603479879 302.0380421404773 453.21538518187543Q297.0921639571904 465.904810015763 297.0921639571904 480.29281927623396L297.0921639571904 480.29281927623396Q297.0921639571904 494.6808285367049 302.0380421404773 507.34527418784864Q306.98392032376415 520.0346990217362 316.1512803907656 529.5517676471518Q325.31864045776706 539.0938154553114 338.1079820226301 544.489318927988Q350.8723444047493 549.8848224006647 366.684167081621 549.8848224006647L366.684167081621 549.8848224006647Q382.1712603828224 549.8848224006647 394.8357060339661 544.5892356589635Q407.5251308678537 539.2686697345185 416.69249093485513 530.1013096675171L416.69249093485513 530.1013096675171L420.46434752918 533.8731662618419Q410.5725911626062 543.7649226284157 396.90897820170755 549.5351138422504Q383.24536524080895 555.2803258733412 366.684167081621 555.2803258733412ZM487.90814093763754 552.5825741370029L444.9189674354318 552.5825741370029L444.9189674354318 480.29281927623396L487.90814093763754 480.29281927623396L487.90814093763754 485.6883227489106L450.31447090810843 485.6883227489106L450.31447090810843 492.1579310795737L487.90814093763754 492.1579310795737L487.90814093763754 497.55343455225034L450.31447090810843 497.55343455225034L450.31447090810843 507.79489947723835L482.16292890654665 507.79489947723835L482.16292890654665 513.190402949915L450.31447090810843 513.190402949915L450.31447090810843 519.6600112805781L482.16292890654665 519.6600112805781L482.16292890654665 525.0555147532548L450.31447090810843 525.0555147532548L450.31447090810843 535.3219588609866L487.90814093763754 535.3219588609866L487.90814093763754 540.7174623336632L450.31447090810843 540.7174623336632L450.31447090810843 547.1870706643263L487.90814093763754 547.1870706643263L487.90814093763754 552.5825741370029ZM438.44935910476863 552.5825741370029L433.05385563209205 552.5825741370029L433.05385563209205 480.29281927623396L438.44935910476863 480.29281927623396L438.44935910476863 552.5825741370029ZM515.6100546005929 552.5825741370029L510.21455112791625 552.5825741370029L510.21455112791625 480.29281927623396L538.441027628493 480.29281927623396L538.441027628493 480.29281927623396Q547.2586791370802 480.4676735554411 553.5534331885362 486.3128023175074Q559.8481872399923 492.1579310795737 559.8481872399923 502.3993960045617L559.8481872399923 502.3993960045617Q559.8481872399923 510.31779693436954 555.9764139146919 515.7133004070461Q552.1296197721356 521.1088038797227 546.0097199998866 523.2570135956958L546.0097199998866 523.2570135956958L558.5992281027986 552.5825741370029L552.6541826097568 552.5825741370029L540.789070806417 524.3560976364263Q539.3402782072724 524.5309519156333 538.441027628493 524.5309519156333L538.441027628493 524.5309519156333L538.441027628493 524.5309519156333L533.7699204553887 524.5309519156333L545.6350322587284 552.5825741370029L539.7149659484305 552.5825741370029L527.8498541450907 524.5309519156333L515.6100546005929 524.5309519156333L515.6100546005929 552.5825741370029ZM503.7449427972531 552.5825741370029L498.34943932457657 552.5825741370029L498.34943932457657 480.29281927623396L503.7449427972531 480.29281927623396L503.7449427972531 552.5825741370029ZM538.0913190700787 485.6883227489106L538.0913190700787 485.6883227489106L515.6100546005929 485.6883227489106L515.6100546005929 492.1579310795737L538.441027628493 492.1579310795737L538.441027628493 492.1579310795737Q542.762426243183 492.3327853587808 545.3852404312897 495.13045382609465Q547.9830754366526 497.9031431106646 547.9830754366526 502.3993960045617L547.9830754366526 502.3993960045617Q547.9830754366526 506.8956488984589 545.2853237003143 509.76825491400433Q542.587571963976 512.6658401122936 538.441027628493 512.6658401122936L538.441027628493 512.6658401122936L538.441027628493 512.6658401122936L515.6100546005929 512.6658401122936L515.6100546005929 519.1354484429568L538.0913190700787 519.1354484429568Q544.9356151419 519.1354484429568 549.6816598632358 514.9139665592422Q554.4526837673156 510.66750549278373 554.4526837673156 502.3993960045617L554.4526837673156 502.3993960045617Q554.4526837673156 494.1312865163397 549.6816598632358 489.90980463262514Q544.9356151419 485.6883227489106 538.0913190700787 485.6883227489106ZM538.0913190700787 497.55343455225034L538.0913190700787 497.55343455225034L515.6100546005929 497.55343455225034L515.6100546005929 507.27033663961697L538.0913190700787 507.27033663961697Q540.0646745068448 507.27033663961697 541.3386128267823 506.09631505065494Q542.587571963976 504.9222934616929 542.587571963976 502.3993960045617L542.587571963976 502.3993960045617Q542.587571963976 499.8764985474305 541.3386128267823 498.7274561412124Q540.0646745068448 497.55343455225034 538.0913190700787 497.55343455225034ZM624.4193746329045 485.6883227489106L565.2436907126689 485.6883227489106L565.2436907126689 480.29281927623396L624.4193746329045 480.29281927623396L624.4193746329045 485.6883227489106ZM591.4968117764797 552.5825741370029L586.1013083038029 552.5825741370029L586.1013083038029 497.55343455225034L565.2436907126689 497.55343455225034L565.2436907126689 492.1579310795737L624.4193746329045 492.1579310795737L624.4193746329045 497.55343455225034L603.3869027625633 497.55343455225034L603.3869027625633 552.5825741370029L597.9913992898867 552.5825741370029L597.9913992898867 497.55343455225034L591.4968117764797 497.55343455225034L591.4968117764797 552.5825741370029Z " fill="#f1f5f9" transform="matrix(0.42897624942285395,0,0,0.4289762494228539,0,93.97115511617875)"/><path d="M785.1811285940522 531.8273998159564L785.1811285940522 531.8273998159564Q769.9243803121572 531.8273998159564 757.827605784441 525.063080998417Q745.7308312567247 518.2987621808778 738.6208903098222 506.596984372434Q731.5109493629197 494.8458319740812 731.5109493629197 480.2803279509127L731.5109493629197 480.2803279509127Q731.5109493629197 465.71482392774425 738.6208903098222 453.96367152939143Q745.7308312567247 442.21251913103856 757.827605784441 435.4975749034084Q769.9243803121572 428.73325608586913 785.1811285940522 428.73325608586913L785.1811285940522 428.73325608586913Q798.0185219704041 428.73325608586913 808.8315571604851 433.7200896666827Q819.6939669404751 438.6575486575873 826.8039078873777 447.19935271185216L826.8039078873777 447.19935271185216L818.2621038331127 453.6180494000281Q806.1653293053967 439.398167506223 785.1811285940522 439.398167506223L785.1811285940522 439.398167506223Q766.7150319680692 439.398167506223 754.470133670626 450.95182154493966Q742.1758607832735 462.50547558365633 742.1758607832735 480.2803279509127L742.1758607832735 480.2803279509127Q742.1758607832735 497.70955818880583 754.470133670626 509.4113359972496Q766.7150319680692 521.1624883956024 785.1811285940522 521.1624883956024L785.1811285940522 521.1624883956024Q806.1653293053967 521.1624883956024 818.2621038331127 506.94260650179734L818.2621038331127 506.94260650179734L826.8039078873777 513.3119286000642Q819.6939669404751 521.8537326543292 808.8315571604851 526.8405662351427Q798.0185219704041 531.8273998159564 785.1811285940522 531.8273998159564ZM785.1811285940522 555.280330022753L785.1811285940522 555.280330022753Q763.5056836239812 555.280330022753 746.0764533860881 545.3066628611257Q728.6965977381042 535.3823702894076 718.3773084471136 518.2987621808778Q708.058019156123 501.2645286622571 708.058019156123 480.2803279509127L708.058019156123 480.2803279509127Q708.058019156123 458.95050511020503 718.3773084471136 442.0643953613114Q728.6965977381042 425.1782856124178 746.0764533860881 415.20461845079063Q763.5056836239812 405.28032587907245 785.1811285940522 405.28032587907245L785.1811285940522 405.28032587907245Q803.6965998099444 405.28032587907245 819.3483448111118 412.73588895533834Q834.9507152223701 420.19145203160423 845.2700045133607 432.6338486886837L845.2700045133607 432.6338486886837L837.1231971783682 439.05254537685965Q828.2357709947399 428.3876339565058 814.7071333596615 422.1664356279661Q801.178495724583 415.9452372994263 785.1811285940522 415.9452372994263L785.1811285940522 415.9452372994263Q766.3694098387059 415.9452372994263 751.2607853265379 424.43766676378215Q736.15216081437 432.97947081804705 727.4128584004688 447.39685107148836Q718.7229305764769 461.76485673502066 718.7229305764769 480.2803279509127L718.7229305764769 480.2803279509127Q718.7229305764769 498.40080244753244 727.4128584004688 512.9663064707008Q736.15216081437 527.5318104938693 751.2607853265379 536.0736145481342Q766.3694098387059 544.6154186023991 785.1811285940522 544.6154186023991L785.1811285940522 544.6154186023991Q801.178495724583 544.6154186023991 814.7071333596615 538.3942202738593Q828.2357709947399 532.1730219453196 837.1231971783682 521.5081105249658L837.1231971783682 521.5081105249658L845.2700045133607 527.9268072131417Q834.9507152223701 540.3692038702212 819.3483448111118 547.8247669464871Q803.6965998099444 555.280330022753 785.1811285940522 555.280330022753ZM976.8039120310582 551.7253595493016L891.8302427975907 551.7253595493016L891.8302427975907 408.83529635252376L976.8039120310582 408.83529635252376L976.8039120310582 419.50020777287756L902.4951542179444 419.50020777287756L902.4951542179444 432.28822655932044L976.8039120310582 432.28822655932044L976.8039120310582 442.95313797967424L902.4951542179444 442.95313797967424L902.4951542179444 463.19671984238295L965.4477563519777 463.19671984238295L965.4477563519777 473.8616312627368L902.4951542179444 473.8616312627368L902.4951542179444 486.6496500491796L965.4477563519777 486.6496500491796L965.4477563519777 497.31456146953343L902.4951542179444 497.31456146953343L902.4951542179444 517.6075179221511L976.8039120310582 517.6075179221511L976.8039120310582 528.272429342505L902.4951542179444 528.272429342505L902.4951542179444 541.0604481289479L976.8039120310582 541.0604481289479L976.8039120310582 551.7253595493016ZM879.0422240111478 551.7253595493016L868.3773125907941 551.7253595493016L868.3773125907941 408.83529635252376L879.0422240111478 408.83529635252376L879.0422240111478 551.7253595493016ZM1031.5603322401898 551.7253595493016L1020.8954208198359 551.7253595493016L1020.8954208198359 408.83529635252376L1076.6887074170572 408.83529635252376L1076.6887074170572 408.83529635252376Q1094.1179376549503 409.1809184818871 1106.56033431203 420.73457252060376Q1119.0027309691095 432.28822655932044 1119.0027309691095 452.5318084220291L1119.0027309691095 452.5318084220291Q1119.0027309691095 468.18355342319654 1111.3496695332074 478.8484648435504Q1103.7459826872143 489.51337626390426 1091.6492081594981 493.7595909960821L1091.6492081594981 493.7595909960821L1116.534001473657 551.7253595493016L1104.7828490753043 551.7253595493016L1081.3299188685078 495.93207295208015Q1078.466192653783 496.2776950814435 1076.6887074170572 496.2776950814435L1076.6887074170572 496.2776950814435L1076.6887074170572 496.2776950814435L1067.455659104066 496.2776950814435L1090.9085893108625 551.7253595493016L1079.2068115024188 551.7253595493016L1055.753881295622 496.2776950814435L1031.5603322401898 496.2776950814435L1031.5603322401898 551.7253595493016ZM1008.107402033393 551.7253595493016L997.4424906130391 551.7253595493016L997.4424906130391 408.83529635252376L1008.107402033393 408.83529635252376L1008.107402033393 551.7253595493016ZM1075.9974631583307 419.50020777287756L1075.9974631583307 419.50020777287756L1031.5603322401898 419.50020777287756L1031.5603322401898 432.28822655932044L1076.6887074170572 432.28822655932044L1076.6887074170572 432.28822655932044Q1085.2305114713222 432.6338486886837 1090.414843411772 438.16380275849684Q1095.5498007623128 443.6443822384009 1095.5498007623128 452.5318084220291L1095.5498007623128 452.5318084220291Q1095.5498007623128 461.4192346056573 1090.217345052136 467.09731244519753Q1084.884889341959 472.8247648746468 1076.6887074170572 472.8247648746468L1076.6887074170572 472.8247648746468L1076.6887074170572 472.8247648746468L1031.5603322401898 472.8247648746468L1031.5603322401898 485.6127836610896L1075.9974631583307 485.6127836610896Q1089.5261007934091 485.6127836610896 1098.9072728761278 477.2684779664609Q1108.3378195487555 468.87479768192316 1108.3378195487555 452.5318084220291L1108.3378195487555 452.5318084220291Q1108.3378195487555 436.188819162135 1098.9072728761278 427.8445134675063Q1089.5261007934091 419.50020777287756 1075.9974631583307 419.50020777287756ZM1075.9974631583307 442.95313797967424L1075.9974631583307 442.95313797967424L1031.5603322401898 442.95313797967424L1031.5603322401898 462.159853454293L1075.9974631583307 462.159853454293Q1079.8980557611453 462.159853454293 1082.4161598465066 459.83924772856784Q1084.884889341959 457.51864200284274 1084.884889341959 452.5318084220291L1084.884889341959 452.5318084220291Q1084.884889341959 447.5449748412155 1082.4161598465066 445.2737437053994Q1079.8980557611453 442.95313797967424 1075.9974631583307 442.95313797967424ZM1246.6360458839922 419.50020777287756L1129.6676423894633 419.50020777287756L1129.6676423894633 408.83529635252376L1246.6360458839922 408.83529635252376L1246.6360458839922 419.50020777287756ZM1181.5603363838702 551.7253595493016L1170.8954249635162 551.7253595493016L1170.8954249635162 442.95313797967424L1129.6676423894633 442.95313797967424L1129.6676423894633 432.28822655932044L1246.6360458839922 432.28822655932044L1246.6360458839922 442.95313797967424L1205.0626411805758 442.95313797967424L1205.0626411805758 551.7253595493016L1194.3977297602219 551.7253595493016L1194.3977297602219 442.95313797967424L1181.5603363838702 442.95313797967424L1181.5603363838702 551.7253595493016ZM1298.528739878399 551.7253595493016L1287.8638284580452 551.7253595493016L1287.8638284580452 408.83529635252376L1298.528739878399 408.83529635252376L1298.528739878399 551.7253595493016ZM1275.0758096716024 551.7253595493016L1264.4108982512487 551.7253595493016L1264.4108982512487 408.83529635252376L1275.0758096716024 408.83529635252376L1275.0758096716024 551.7253595493016ZM1361.0863452931599 551.7253595493016L1350.4214338728061 551.7253595493016L1350.4214338728061 408.83529635252376L1435.3951031062734 408.83529635252376L1435.3951031062734 419.50020777287756L1361.0863452931599 419.50020777287756L1361.0863452931599 432.28822655932044L1435.3951031062734 432.28822655932044L1435.3951031062734 442.95313797967424L1361.0863452931599 442.95313797967424L1361.0863452931599 463.19671984238295L1424.0389474271929 463.19671984238295L1424.0389474271929 473.8616312627368L1361.0863452931599 473.8616312627368L1361.0863452931599 486.6496500491796L1424.0389474271929 486.6496500491796L1424.0389474271929 497.31456146953343L1361.0863452931599 497.31456146953343L1361.0863452931599 551.7253595493016ZM1337.6334150863631 551.7253595493016L1326.9685036660094 551.7253595493016L1326.9685036660094 408.83529635252376L1337.6334150863631 408.83529635252376L1337.6334150863631 551.7253595493016ZM1490.8427675741316 551.7253595493016L1480.1778561537778 551.7253595493016L1480.1778561537778 408.83529635252376L1490.8427675741316 408.83529635252376L1490.8427675741316 551.7253595493016ZM1467.389837367335 551.7253595493016L1456.724925946981 551.7253595493016L1456.724925946981 408.83529635252376L1467.389837367335 408.83529635252376L1467.389837367335 551.7253595493016ZM1592.900044916129 531.8273998159564L1592.900044916129 531.8273998159564Q1577.5939220443247 531.8273998159564 1565.4971475166085 525.063080998417Q1553.4497475788014 518.2987621808778 1546.339806631899 506.596984372434Q1539.2298656849962 494.8458319740812 1539.2298656849962 480.2803279509127L1539.2298656849962 480.2803279509127Q1539.2298656849962 465.71482392774425 1546.339806631899 453.96367152939143Q1553.4497475788014 442.21251913103856 1565.4971475166085 435.4975749034084Q1577.5939220443247 428.73325608586913 1592.900044916129 428.73325608586913L1592.900044916129 428.73325608586913Q1605.6880637025718 428.73325608586913 1616.5504734825618 433.7200896666827Q1627.3635086726426 438.6575486575873 1634.4734496195451 447.19935271185216L1634.4734496195451 447.19935271185216L1625.9316455652802 453.6180494000281Q1613.8842456274733 439.398167506223 1592.900044916129 439.398167506223L1592.900044916129 439.398167506223Q1574.3845737002368 439.398167506223 1562.1396754027933 450.95182154493966Q1549.8947771053502 462.50547558365633 1549.8947771053502 480.2803279509127L1549.8947771053502 480.2803279509127Q1549.8947771053502 497.70955818880583 1562.1396754027933 509.4113359972496Q1574.3845737002368 521.1624883956024 1592.900044916129 521.1624883956024L1592.900044916129 521.1624883956024Q1613.8842456274733 521.1624883956024 1625.9316455652802 506.94260650179734L1625.9316455652802 506.94260650179734L1634.4734496195451 513.3119286000642Q1627.3635086726426 521.8537326543292 1616.5504734825618 526.8405662351427Q1605.6880637025718 531.8273998159564 1592.900044916129 531.8273998159564ZM1592.900044916129 555.280330022753L1592.900044916129 555.280330022753Q1571.2245999460579 555.280330022753 1553.7953697081648 545.3066628611257Q1536.3661394702717 535.3823702894076 1526.0468501792811 518.2987621808778Q1515.7275608882906 501.2645286622571 1515.7275608882906 480.2803279509127L1515.7275608882906 480.2803279509127Q1515.7275608882906 458.95050511020503 1526.0468501792811 442.0643953613114Q1536.3661394702717 425.1782856124178 1553.7953697081648 415.20461845079063Q1571.2245999460579 405.28032587907245 1592.900044916129 405.28032587907245L1592.900044916129 405.28032587907245Q1611.366141542112 405.28032587907245 1627.0178865432795 412.73588895533834Q1642.669631544447 420.19145203160423 1652.9889208354373 432.6338486886837L1652.9889208354373 432.6338486886837L1644.7927389105357 439.05254537685965Q1635.9053127269076 428.3876339565058 1622.3766750918292 422.1664356279661Q1608.8974120466596 415.9452372994263 1592.900044916129 415.9452372994263L1592.900044916129 415.9452372994263Q1574.0389515708735 415.9452372994263 1558.9303270587056 424.43766676378215Q1543.8217025465376 432.97947081804705 1535.1317747225455 447.39685107148836Q1526.3924723086443 461.76485673502066 1526.3924723086443 480.2803279509127L1526.3924723086443 480.2803279509127Q1526.3924723086443 498.40080244753244 1535.1317747225455 512.9663064707008Q1543.8217025465376 527.5318104938693 1558.9303270587056 536.0736145481342Q1574.0389515708735 544.6154186023991 1592.900044916129 544.6154186023991L1592.900044916129 544.6154186023991Q1608.8974120466596 544.6154186023991 1622.3766750918292 538.3942202738593Q1635.9053127269076 532.1730219453196 1644.7927389105357 521.5081105249658L1644.7927389105357 521.5081105249658L1652.9889208354373 527.9268072131417Q1642.669631544447 540.3692038702212 1627.0178865432795 547.8247669464871Q1611.366141542112 555.280330022753 1592.900044916129 555.280330022753ZM1699.8947812490305 551.7253595493016L1688.5386255699505 551.7253595493016L1740.4313195643567 408.83529635252376L1751.7874752434377 408.83529635252376L1803.6801692378444 551.7253595493016L1792.324013558764 551.7253595493016L1746.1093974038972 424.43766676378215L1739.3450785863579 442.95313797967424L1778.7953759236852 551.7253595493016L1767.4392202446052 551.7253595493016L1761.4155202757015 534.6417514407719L1705.9184812179342 534.6417514407719L1699.8947812490305 551.7253595493016ZM1675.0099879348718 551.7253595493016L1663.653832255791 551.7253595493016L1715.5465262501982 408.83529635252376L1726.9026819292785 408.83529635252376L1675.0099879348718 551.7253595493016ZM1733.6670007468178 458.6048829808417L1718.3608778750138 500.52390981362146L1748.9731236186221 500.52390981362146L1733.6670007468178 458.6048829808417ZM1714.4602852721991 511.18882123397526L1709.868448410658 523.9768400204181L1757.4655530829777 523.9768400204181L1752.8737162214366 511.18882123397526L1714.4602852721991 511.18882123397526ZM1913.538631785471 419.50020777287756L1796.570228290942 419.50020777287756L1796.570228290942 408.83529635252376L1913.538631785471 408.83529635252376L1913.538631785471 419.50020777287756ZM1848.5122968752576 551.7253595493016L1837.8473854549038 551.7253595493016L1837.8473854549038 442.95313797967424L1796.570228290942 442.95313797967424L1796.570228290942 432.28822655932044L1913.538631785471 432.28822655932044L1913.538631785471 442.95313797967424L1871.9652270820543 442.95313797967424L1871.9652270820543 551.7253595493016L1861.3003156617006 551.7253595493016L1861.3003156617006 442.95313797967424L1848.5122968752576 442.95313797967424L1848.5122968752576 551.7253595493016ZM2039.7400835929916 551.7253595493016L1954.7664143595239 551.7253595493016L1954.7664143595239 408.83529635252376L2039.7400835929916 408.83529635252376L2039.7400835929916 419.50020777287756L1965.4313257798776 419.50020777287756L1965.4313257798776 432.28822655932044L2039.7400835929916 432.28822655932044L2039.7400835929916 442.95313797967424L1965.4313257798776 442.95313797967424L1965.4313257798776 463.19671984238295L2028.3839279139106 463.19671984238295L2028.3839279139106 473.8616312627368L1965.4313257798776 473.8616312627368L1965.4313257798776 486.6496500491796L2028.3839279139106 486.6496500491796L2028.3839279139106 497.31456146953343L1965.4313257798776 497.31456146953343L1965.4313257798776 517.6075179221511L2039.7400835929916 517.6075179221511L2039.7400835929916 528.272429342505L1965.4313257798776 528.272429342505L1965.4313257798776 541.0604481289479L2039.7400835929916 541.0604481289479L2039.7400835929916 551.7253595493016ZM1941.978395573081 551.7253595493016L1931.3134841527271 551.7253595493016L1931.3134841527271 408.83529635252376L1941.978395573081 408.83529635252376L1941.978395573081 551.7253595493016Z " fill="#2cb1bc" transform="matrix(0.42897624942285395,0,0,0.4289762494228539,0,93.97115511617875)"/></g></svg>